<?xml version="1.0" encoding="utf-8" standalone="no"?>
<!DOCTYPE svg PUBLIC "-//W3C//DTD SVG 1.1//EN"
  "http://www.w3.org/Graphics/SVG/1.1/DTD/svg11.dtd">
<svg xmlns:xlink="http://www.w3.org/1999/xlink" width="419.077586pt" height="380.870727pt" viewBox="0 0 419.077586 380.870727" xmlns="http://www.w3.org/2000/svg" version="1.1">
 <metadata>
  <rdf:RDF xmlns:dc="http://purl.org/dc/elements/1.1/" xmlns:cc="http://creativecommons.org/ns#" xmlns:rdf="http://www.w3.org/1999/02/22-rdf-syntax-ns#">
   <cc:Work>
    <dc:type rdf:resource="http://purl.org/dc/dcmitype/StillImage"/>
    <dc:date>2022-06-05T17:29:51.908775</dc:date>
    <dc:format>image/svg+xml</dc:format>
    <dc:creator>
     <cc:Agent>
      <dc:title>Matplotlib v3.5.2, https://matplotlib.org/</dc:title>
     </cc:Agent>
    </dc:creator>
   </cc:Work>
  </rdf:RDF>
 </metadata>
 <defs>
  <style type="text/css">*{stroke-linejoin: round; stroke-linecap: butt}</style>
 </defs>
 <g id="figure_1">
  <g id="patch_1">
   <path d="M 0 380.870727 
L 419.077586 380.870727 
L 419.077586 -0 
L 0 -0 
z
" style="fill: #ffffff"/>
  </g>
  <g id="axes_1">
   <g id="patch_2">
    <path d="M 40.88125 273.312 
L 398.00125 273.312 
L 398.00125 7.2 
L 40.88125 7.2 
z
" style="fill: #ffffff"/>
   </g>
   <g id="patch_3">
    <path d="M 57.113977 273.312 
L 81.29038 273.312 
L 81.29038 198.153649 
L 57.113977 198.153649 
z
" clip-path="url(#p0a05cd23f2)" style="fill: #1f77b4"/>
   </g>
   <g id="patch_4">
    <path d="M 126.189412 273.312 
L 150.365815 273.312 
L 150.365815 224.805547 
L 126.189412 224.805547 
z
" clip-path="url(#p0a05cd23f2)" style="fill: #1f77b4"/>
   </g>
   <g id="patch_5">
    <path d="M 195.264848 273.312 
L 219.44125 273.312 
L 219.44125 154.906504 
L 195.264848 154.906504 
z
" clip-path="url(#p0a05cd23f2)" style="fill: #1f77b4"/>
   </g>
   <g id="patch_6">
    <path d="M 264.340283 273.312 
L 288.516685 273.312 
L 288.516685 177.194597 
L 264.340283 177.194597 
z
" clip-path="url(#p0a05cd23f2)" style="fill: #1f77b4"/>
   </g>
   <g id="patch_7">
    <path d="M 333.415718 273.312 
L 357.59212 273.312 
L 357.59212 154.906504 
L 333.415718 154.906504 
z
" clip-path="url(#p0a05cd23f2)" style="fill: #1f77b4"/>
   </g>
   <g id="patch_8">
    <path d="M 81.29038 273.312 
L 105.466782 273.312 
L 105.466782 218.689987 
L 81.29038 218.689987 
z
" clip-path="url(#p0a05cd23f2)" style="fill: #ff7f0e"/>
   </g>
   <g id="patch_9">
    <path d="M 150.365815 273.312 
L 174.542217 273.312 
L 174.542217 218.689987 
L 150.365815 218.689987 
z
" clip-path="url(#p0a05cd23f2)" style="fill: #ff7f0e"/>
   </g>
   <g id="patch_10">
    <path d="M 219.44125 273.312 
L 243.617652 273.312 
L 243.617652 218.689987 
L 219.44125 218.689987 
z
" clip-path="url(#p0a05cd23f2)" style="fill: #ff7f0e"/>
   </g>
   <g id="patch_11">
    <path d="M 288.516685 273.312 
L 312.693088 273.312 
L 312.693088 218.689987 
L 288.516685 218.689987 
z
" clip-path="url(#p0a05cd23f2)" style="fill: #ff7f0e"/>
   </g>
   <g id="patch_12">
    <path d="M 357.59212 273.312 
L 381.768523 273.312 
L 381.768523 218.689987 
L 357.59212 218.689987 
z
" clip-path="url(#p0a05cd23f2)" style="fill: #ff7f0e"/>
   </g>
   <g id="matplotlib.axis_1">
    <g id="xtick_1">
     <g id="line2d_1">
      <defs>
       <path id="m087c4d9313" d="M 0 0 
L 0 3.5 
" style="stroke: #000000; stroke-width: 0.8"/>
      </defs>
      <g>
       <use xlink:href="#m087c4d9313" x="81.29038" y="273.312" style="stroke: #000000; stroke-width: 0.8"/>
      </g>
     </g>
     <g id="text_1">
      <!-- ntSP_X_MSCntrl -->
      <g transform="translate(52.87213 336.650825)rotate(-40)scale(0.1 -0.1)">
       <defs>
        <path id="DejaVuSans-6e" d="M 3513 2113 
L 3513 0 
L 2938 0 
L 2938 2094 
Q 2938 2591 2744 2837 
Q 2550 3084 2163 3084 
Q 1697 3084 1428 2787 
Q 1159 2491 1159 1978 
L 1159 0 
L 581 0 
L 581 3500 
L 1159 3500 
L 1159 2956 
Q 1366 3272 1645 3428 
Q 1925 3584 2291 3584 
Q 2894 3584 3203 3211 
Q 3513 2838 3513 2113 
z
" transform="scale(0.015625)"/>
        <path id="DejaVuSans-74" d="M 1172 4494 
L 1172 3500 
L 2356 3500 
L 2356 3053 
L 1172 3053 
L 1172 1153 
Q 1172 725 1289 603 
Q 1406 481 1766 481 
L 2356 481 
L 2356 0 
L 1766 0 
Q 1100 0 847 248 
Q 594 497 594 1153 
L 594 3053 
L 172 3053 
L 172 3500 
L 594 3500 
L 594 4494 
L 1172 4494 
z
" transform="scale(0.015625)"/>
        <path id="DejaVuSans-53" d="M 3425 4513 
L 3425 3897 
Q 3066 4069 2747 4153 
Q 2428 4238 2131 4238 
Q 1616 4238 1336 4038 
Q 1056 3838 1056 3469 
Q 1056 3159 1242 3001 
Q 1428 2844 1947 2747 
L 2328 2669 
Q 3034 2534 3370 2195 
Q 3706 1856 3706 1288 
Q 3706 609 3251 259 
Q 2797 -91 1919 -91 
Q 1588 -91 1214 -16 
Q 841 59 441 206 
L 441 856 
Q 825 641 1194 531 
Q 1563 422 1919 422 
Q 2459 422 2753 634 
Q 3047 847 3047 1241 
Q 3047 1584 2836 1778 
Q 2625 1972 2144 2069 
L 1759 2144 
Q 1053 2284 737 2584 
Q 422 2884 422 3419 
Q 422 4038 858 4394 
Q 1294 4750 2059 4750 
Q 2388 4750 2728 4690 
Q 3069 4631 3425 4513 
z
" transform="scale(0.015625)"/>
        <path id="DejaVuSans-50" d="M 1259 4147 
L 1259 2394 
L 2053 2394 
Q 2494 2394 2734 2622 
Q 2975 2850 2975 3272 
Q 2975 3691 2734 3919 
Q 2494 4147 2053 4147 
L 1259 4147 
z
M 628 4666 
L 2053 4666 
Q 2838 4666 3239 4311 
Q 3641 3956 3641 3272 
Q 3641 2581 3239 2228 
Q 2838 1875 2053 1875 
L 1259 1875 
L 1259 0 
L 628 0 
L 628 4666 
z
" transform="scale(0.015625)"/>
        <path id="DejaVuSans-5f" d="M 3263 -1063 
L 3263 -1509 
L -63 -1509 
L -63 -1063 
L 3263 -1063 
z
" transform="scale(0.015625)"/>
        <path id="DejaVuSans-58" d="M 403 4666 
L 1081 4666 
L 2241 2931 
L 3406 4666 
L 4084 4666 
L 2584 2425 
L 4184 0 
L 3506 0 
L 2194 1984 
L 872 0 
L 191 0 
L 1856 2491 
L 403 4666 
z
" transform="scale(0.015625)"/>
        <path id="DejaVuSans-4d" d="M 628 4666 
L 1569 4666 
L 2759 1491 
L 3956 4666 
L 4897 4666 
L 4897 0 
L 4281 0 
L 4281 4097 
L 3078 897 
L 2444 897 
L 1241 4097 
L 1241 0 
L 628 0 
L 628 4666 
z
" transform="scale(0.015625)"/>
        <path id="DejaVuSans-43" d="M 4122 4306 
L 4122 3641 
Q 3803 3938 3442 4084 
Q 3081 4231 2675 4231 
Q 1875 4231 1450 3742 
Q 1025 3253 1025 2328 
Q 1025 1406 1450 917 
Q 1875 428 2675 428 
Q 3081 428 3442 575 
Q 3803 722 4122 1019 
L 4122 359 
Q 3791 134 3420 21 
Q 3050 -91 2638 -91 
Q 1578 -91 968 557 
Q 359 1206 359 2328 
Q 359 3453 968 4101 
Q 1578 4750 2638 4750 
Q 3056 4750 3426 4639 
Q 3797 4528 4122 4306 
z
" transform="scale(0.015625)"/>
        <path id="DejaVuSans-72" d="M 2631 2963 
Q 2534 3019 2420 3045 
Q 2306 3072 2169 3072 
Q 1681 3072 1420 2755 
Q 1159 2438 1159 1844 
L 1159 0 
L 581 0 
L 581 3500 
L 1159 3500 
L 1159 2956 
Q 1341 3275 1631 3429 
Q 1922 3584 2338 3584 
Q 2397 3584 2469 3576 
Q 2541 3569 2628 3553 
L 2631 2963 
z
" transform="scale(0.015625)"/>
        <path id="DejaVuSans-6c" d="M 603 4863 
L 1178 4863 
L 1178 0 
L 603 0 
L 603 4863 
z
" transform="scale(0.015625)"/>
       </defs>
       <use xlink:href="#DejaVuSans-6e"/>
       <use xlink:href="#DejaVuSans-74" x="63.378906"/>
       <use xlink:href="#DejaVuSans-53" x="102.587891"/>
       <use xlink:href="#DejaVuSans-50" x="166.064453"/>
       <use xlink:href="#DejaVuSans-5f" x="226.367188"/>
       <use xlink:href="#DejaVuSans-58" x="276.367188"/>
       <use xlink:href="#DejaVuSans-5f" x="344.873047"/>
       <use xlink:href="#DejaVuSans-4d" x="394.873047"/>
       <use xlink:href="#DejaVuSans-53" x="481.152344"/>
       <use xlink:href="#DejaVuSans-43" x="544.628906"/>
       <use xlink:href="#DejaVuSans-6e" x="614.453125"/>
       <use xlink:href="#DejaVuSans-74" x="677.832031"/>
       <use xlink:href="#DejaVuSans-72" x="717.041016"/>
       <use xlink:href="#DejaVuSans-6c" x="758.154297"/>
      </g>
     </g>
    </g>
    <g id="xtick_2">
     <g id="line2d_2">
      <g>
       <use xlink:href="#m087c4d9313" x="150.365815" y="273.312" style="stroke: #000000; stroke-width: 0.8"/>
      </g>
     </g>
     <g id="text_2">
      <!-- ntCP_X_MSCntrl -->
      <g transform="translate(121.704585 337.058594)rotate(-40)scale(0.1 -0.1)">
       <use xlink:href="#DejaVuSans-6e"/>
       <use xlink:href="#DejaVuSans-74" x="63.378906"/>
       <use xlink:href="#DejaVuSans-43" x="102.587891"/>
       <use xlink:href="#DejaVuSans-50" x="172.412109"/>
       <use xlink:href="#DejaVuSans-5f" x="232.714844"/>
       <use xlink:href="#DejaVuSans-58" x="282.714844"/>
       <use xlink:href="#DejaVuSans-5f" x="351.220703"/>
       <use xlink:href="#DejaVuSans-4d" x="401.220703"/>
       <use xlink:href="#DejaVuSans-53" x="487.5"/>
       <use xlink:href="#DejaVuSans-43" x="550.976562"/>
       <use xlink:href="#DejaVuSans-6e" x="620.800781"/>
       <use xlink:href="#DejaVuSans-74" x="684.179688"/>
       <use xlink:href="#DejaVuSans-72" x="723.388672"/>
       <use xlink:href="#DejaVuSans-6c" x="764.501953"/>
      </g>
     </g>
    </g>
    <g id="xtick_3">
     <g id="line2d_3">
      <g>
       <use xlink:href="#m087c4d9313" x="219.44125" y="273.312" style="stroke: #000000; stroke-width: 0.8"/>
      </g>
     </g>
     <g id="text_3">
      <!-- ntSPwLiP_X_MSCntrl -->
      <g transform="translate(182.382857 351.150708)rotate(-40)scale(0.1 -0.1)">
       <defs>
        <path id="DejaVuSans-77" d="M 269 3500 
L 844 3500 
L 1563 769 
L 2278 3500 
L 2956 3500 
L 3675 769 
L 4391 3500 
L 4966 3500 
L 4050 0 
L 3372 0 
L 2619 2869 
L 1863 0 
L 1184 0 
L 269 3500 
z
" transform="scale(0.015625)"/>
        <path id="DejaVuSans-4c" d="M 628 4666 
L 1259 4666 
L 1259 531 
L 3531 531 
L 3531 0 
L 628 0 
L 628 4666 
z
" transform="scale(0.015625)"/>
        <path id="DejaVuSans-69" d="M 603 3500 
L 1178 3500 
L 1178 0 
L 603 0 
L 603 3500 
z
M 603 4863 
L 1178 4863 
L 1178 4134 
L 603 4134 
L 603 4863 
z
" transform="scale(0.015625)"/>
       </defs>
       <use xlink:href="#DejaVuSans-6e"/>
       <use xlink:href="#DejaVuSans-74" x="63.378906"/>
       <use xlink:href="#DejaVuSans-53" x="102.587891"/>
       <use xlink:href="#DejaVuSans-50" x="166.064453"/>
       <use xlink:href="#DejaVuSans-77" x="226.367188"/>
       <use xlink:href="#DejaVuSans-4c" x="308.154297"/>
       <use xlink:href="#DejaVuSans-69" x="363.867188"/>
       <use xlink:href="#DejaVuSans-50" x="391.650391"/>
       <use xlink:href="#DejaVuSans-5f" x="451.953125"/>
       <use xlink:href="#DejaVuSans-58" x="501.953125"/>
       <use xlink:href="#DejaVuSans-5f" x="570.458984"/>
       <use xlink:href="#DejaVuSans-4d" x="620.458984"/>
       <use xlink:href="#DejaVuSans-53" x="706.738281"/>
       <use xlink:href="#DejaVuSans-43" x="770.214844"/>
       <use xlink:href="#DejaVuSans-6e" x="840.039062"/>
       <use xlink:href="#DejaVuSans-74" x="903.417969"/>
       <use xlink:href="#DejaVuSans-72" x="942.626953"/>
       <use xlink:href="#DejaVuSans-6c" x="983.740234"/>
      </g>
     </g>
    </g>
    <g id="xtick_4">
     <g id="line2d_4">
      <g>
       <use xlink:href="#m087c4d9313" x="288.516685" y="273.312" style="stroke: #000000; stroke-width: 0.8"/>
      </g>
     </g>
     <g id="text_4">
      <!-- AllLiP_X_MSCntrl -->
      <g transform="translate(258.512484 339.312368)rotate(-40)scale(0.1 -0.1)">
       <defs>
        <path id="DejaVuSans-41" d="M 2188 4044 
L 1331 1722 
L 3047 1722 
L 2188 4044 
z
M 1831 4666 
L 2547 4666 
L 4325 0 
L 3669 0 
L 3244 1197 
L 1141 1197 
L 716 0 
L 50 0 
L 1831 4666 
z
" transform="scale(0.015625)"/>
       </defs>
       <use xlink:href="#DejaVuSans-41"/>
       <use xlink:href="#DejaVuSans-6c" x="68.408203"/>
       <use xlink:href="#DejaVuSans-6c" x="96.191406"/>
       <use xlink:href="#DejaVuSans-4c" x="123.974609"/>
       <use xlink:href="#DejaVuSans-69" x="179.6875"/>
       <use xlink:href="#DejaVuSans-50" x="207.470703"/>
       <use xlink:href="#DejaVuSans-5f" x="267.773438"/>
       <use xlink:href="#DejaVuSans-58" x="317.773438"/>
       <use xlink:href="#DejaVuSans-5f" x="386.279297"/>
       <use xlink:href="#DejaVuSans-4d" x="436.279297"/>
       <use xlink:href="#DejaVuSans-53" x="522.558594"/>
       <use xlink:href="#DejaVuSans-43" x="586.035156"/>
       <use xlink:href="#DejaVuSans-6e" x="655.859375"/>
       <use xlink:href="#DejaVuSans-74" x="719.238281"/>
       <use xlink:href="#DejaVuSans-72" x="758.447266"/>
       <use xlink:href="#DejaVuSans-6c" x="799.560547"/>
      </g>
     </g>
    </g>
    <g id="xtick_5">
     <g id="line2d_5">
      <g>
       <use xlink:href="#m087c4d9313" x="357.59212" y="273.312" style="stroke: #000000; stroke-width: 0.8"/>
      </g>
     </g>
     <g id="text_5">
      <!-- ntSP_minus_LiP_X_MSCntrl -->
      <g transform="translate(308.190836 371.864538)rotate(-40)scale(0.1 -0.1)">
       <defs>
        <path id="DejaVuSans-6d" d="M 3328 2828 
Q 3544 3216 3844 3400 
Q 4144 3584 4550 3584 
Q 5097 3584 5394 3201 
Q 5691 2819 5691 2113 
L 5691 0 
L 5113 0 
L 5113 2094 
Q 5113 2597 4934 2840 
Q 4756 3084 4391 3084 
Q 3944 3084 3684 2787 
Q 3425 2491 3425 1978 
L 3425 0 
L 2847 0 
L 2847 2094 
Q 2847 2600 2669 2842 
Q 2491 3084 2119 3084 
Q 1678 3084 1418 2786 
Q 1159 2488 1159 1978 
L 1159 0 
L 581 0 
L 581 3500 
L 1159 3500 
L 1159 2956 
Q 1356 3278 1631 3431 
Q 1906 3584 2284 3584 
Q 2666 3584 2933 3390 
Q 3200 3197 3328 2828 
z
" transform="scale(0.015625)"/>
        <path id="DejaVuSans-75" d="M 544 1381 
L 544 3500 
L 1119 3500 
L 1119 1403 
Q 1119 906 1312 657 
Q 1506 409 1894 409 
Q 2359 409 2629 706 
Q 2900 1003 2900 1516 
L 2900 3500 
L 3475 3500 
L 3475 0 
L 2900 0 
L 2900 538 
Q 2691 219 2414 64 
Q 2138 -91 1772 -91 
Q 1169 -91 856 284 
Q 544 659 544 1381 
z
M 1991 3584 
L 1991 3584 
z
" transform="scale(0.015625)"/>
        <path id="DejaVuSans-73" d="M 2834 3397 
L 2834 2853 
Q 2591 2978 2328 3040 
Q 2066 3103 1784 3103 
Q 1356 3103 1142 2972 
Q 928 2841 928 2578 
Q 928 2378 1081 2264 
Q 1234 2150 1697 2047 
L 1894 2003 
Q 2506 1872 2764 1633 
Q 3022 1394 3022 966 
Q 3022 478 2636 193 
Q 2250 -91 1575 -91 
Q 1294 -91 989 -36 
Q 684 19 347 128 
L 347 722 
Q 666 556 975 473 
Q 1284 391 1588 391 
Q 1994 391 2212 530 
Q 2431 669 2431 922 
Q 2431 1156 2273 1281 
Q 2116 1406 1581 1522 
L 1381 1569 
Q 847 1681 609 1914 
Q 372 2147 372 2553 
Q 372 3047 722 3315 
Q 1072 3584 1716 3584 
Q 2034 3584 2315 3537 
Q 2597 3491 2834 3397 
z
" transform="scale(0.015625)"/>
       </defs>
       <use xlink:href="#DejaVuSans-6e"/>
       <use xlink:href="#DejaVuSans-74" x="63.378906"/>
       <use xlink:href="#DejaVuSans-53" x="102.587891"/>
       <use xlink:href="#DejaVuSans-50" x="166.064453"/>
       <use xlink:href="#DejaVuSans-5f" x="226.367188"/>
       <use xlink:href="#DejaVuSans-6d" x="276.367188"/>
       <use xlink:href="#DejaVuSans-69" x="373.779297"/>
       <use xlink:href="#DejaVuSans-6e" x="401.5625"/>
       <use xlink:href="#DejaVuSans-75" x="464.941406"/>
       <use xlink:href="#DejaVuSans-73" x="528.320312"/>
       <use xlink:href="#DejaVuSans-5f" x="580.419922"/>
       <use xlink:href="#DejaVuSans-4c" x="630.419922"/>
       <use xlink:href="#DejaVuSans-69" x="686.132812"/>
       <use xlink:href="#DejaVuSans-50" x="713.916016"/>
       <use xlink:href="#DejaVuSans-5f" x="774.21875"/>
       <use xlink:href="#DejaVuSans-58" x="824.21875"/>
       <use xlink:href="#DejaVuSans-5f" x="892.724609"/>
       <use xlink:href="#DejaVuSans-4d" x="942.724609"/>
       <use xlink:href="#DejaVuSans-53" x="1029.003906"/>
       <use xlink:href="#DejaVuSans-43" x="1092.480469"/>
       <use xlink:href="#DejaVuSans-6e" x="1162.304688"/>
       <use xlink:href="#DejaVuSans-74" x="1225.683594"/>
       <use xlink:href="#DejaVuSans-72" x="1264.892578"/>
       <use xlink:href="#DejaVuSans-6c" x="1306.005859"/>
      </g>
     </g>
    </g>
   </g>
   <g id="matplotlib.axis_2">
    <g id="ytick_1">
     <g id="line2d_6">
      <defs>
       <path id="ma50cb4ab22" d="M 0 0 
L -3.5 0 
" style="stroke: #000000; stroke-width: 0.8"/>
      </defs>
      <g>
       <use xlink:href="#ma50cb4ab22" x="40.88125" y="273.312" style="stroke: #000000; stroke-width: 0.8"/>
      </g>
     </g>
     <g id="text_6">
      <!-- 0 -->
      <g transform="translate(27.51875 277.111219)scale(0.1 -0.1)">
       <defs>
        <path id="DejaVuSans-30" d="M 2034 4250 
Q 1547 4250 1301 3770 
Q 1056 3291 1056 2328 
Q 1056 1369 1301 889 
Q 1547 409 2034 409 
Q 2525 409 2770 889 
Q 3016 1369 3016 2328 
Q 3016 3291 2770 3770 
Q 2525 4250 2034 4250 
z
M 2034 4750 
Q 2819 4750 3233 4129 
Q 3647 3509 3647 2328 
Q 3647 1150 3233 529 
Q 2819 -91 2034 -91 
Q 1250 -91 836 529 
Q 422 1150 422 2328 
Q 422 3509 836 4129 
Q 1250 4750 2034 4750 
z
" transform="scale(0.015625)"/>
       </defs>
       <use xlink:href="#DejaVuSans-30"/>
      </g>
     </g>
    </g>
    <g id="ytick_2">
     <g id="line2d_7">
      <g>
       <use xlink:href="#ma50cb4ab22" x="40.88125" y="238.486854" style="stroke: #000000; stroke-width: 0.8"/>
      </g>
     </g>
     <g id="text_7">
      <!-- 2 -->
      <g transform="translate(27.51875 242.286073)scale(0.1 -0.1)">
       <defs>
        <path id="DejaVuSans-32" d="M 1228 531 
L 3431 531 
L 3431 0 
L 469 0 
L 469 531 
Q 828 903 1448 1529 
Q 2069 2156 2228 2338 
Q 2531 2678 2651 2914 
Q 2772 3150 2772 3378 
Q 2772 3750 2511 3984 
Q 2250 4219 1831 4219 
Q 1534 4219 1204 4116 
Q 875 4013 500 3803 
L 500 4441 
Q 881 4594 1212 4672 
Q 1544 4750 1819 4750 
Q 2544 4750 2975 4387 
Q 3406 4025 3406 3419 
Q 3406 3131 3298 2873 
Q 3191 2616 2906 2266 
Q 2828 2175 2409 1742 
Q 1991 1309 1228 531 
z
" transform="scale(0.015625)"/>
       </defs>
       <use xlink:href="#DejaVuSans-32"/>
      </g>
     </g>
    </g>
    <g id="ytick_3">
     <g id="line2d_8">
      <g>
       <use xlink:href="#ma50cb4ab22" x="40.88125" y="203.661708" style="stroke: #000000; stroke-width: 0.8"/>
      </g>
     </g>
     <g id="text_8">
      <!-- 4 -->
      <g transform="translate(27.51875 207.460927)scale(0.1 -0.1)">
       <defs>
        <path id="DejaVuSans-34" d="M 2419 4116 
L 825 1625 
L 2419 1625 
L 2419 4116 
z
M 2253 4666 
L 3047 4666 
L 3047 1625 
L 3713 1625 
L 3713 1100 
L 3047 1100 
L 3047 0 
L 2419 0 
L 2419 1100 
L 313 1100 
L 313 1709 
L 2253 4666 
z
" transform="scale(0.015625)"/>
       </defs>
       <use xlink:href="#DejaVuSans-34"/>
      </g>
     </g>
    </g>
    <g id="ytick_4">
     <g id="line2d_9">
      <g>
       <use xlink:href="#ma50cb4ab22" x="40.88125" y="168.836562" style="stroke: #000000; stroke-width: 0.8"/>
      </g>
     </g>
     <g id="text_9">
      <!-- 6 -->
      <g transform="translate(27.51875 172.635781)scale(0.1 -0.1)">
       <defs>
        <path id="DejaVuSans-36" d="M 2113 2584 
Q 1688 2584 1439 2293 
Q 1191 2003 1191 1497 
Q 1191 994 1439 701 
Q 1688 409 2113 409 
Q 2538 409 2786 701 
Q 3034 994 3034 1497 
Q 3034 2003 2786 2293 
Q 2538 2584 2113 2584 
z
M 3366 4563 
L 3366 3988 
Q 3128 4100 2886 4159 
Q 2644 4219 2406 4219 
Q 1781 4219 1451 3797 
Q 1122 3375 1075 2522 
Q 1259 2794 1537 2939 
Q 1816 3084 2150 3084 
Q 2853 3084 3261 2657 
Q 3669 2231 3669 1497 
Q 3669 778 3244 343 
Q 2819 -91 2113 -91 
Q 1303 -91 875 529 
Q 447 1150 447 2328 
Q 447 3434 972 4092 
Q 1497 4750 2381 4750 
Q 2619 4750 2861 4703 
Q 3103 4656 3366 4563 
z
" transform="scale(0.015625)"/>
       </defs>
       <use xlink:href="#DejaVuSans-36"/>
      </g>
     </g>
    </g>
    <g id="ytick_5">
     <g id="line2d_10">
      <g>
       <use xlink:href="#ma50cb4ab22" x="40.88125" y="134.011416" style="stroke: #000000; stroke-width: 0.8"/>
      </g>
     </g>
     <g id="text_10">
      <!-- 8 -->
      <g transform="translate(27.51875 137.810635)scale(0.1 -0.1)">
       <defs>
        <path id="DejaVuSans-38" d="M 2034 2216 
Q 1584 2216 1326 1975 
Q 1069 1734 1069 1313 
Q 1069 891 1326 650 
Q 1584 409 2034 409 
Q 2484 409 2743 651 
Q 3003 894 3003 1313 
Q 3003 1734 2745 1975 
Q 2488 2216 2034 2216 
z
M 1403 2484 
Q 997 2584 770 2862 
Q 544 3141 544 3541 
Q 544 4100 942 4425 
Q 1341 4750 2034 4750 
Q 2731 4750 3128 4425 
Q 3525 4100 3525 3541 
Q 3525 3141 3298 2862 
Q 3072 2584 2669 2484 
Q 3125 2378 3379 2068 
Q 3634 1759 3634 1313 
Q 3634 634 3220 271 
Q 2806 -91 2034 -91 
Q 1263 -91 848 271 
Q 434 634 434 1313 
Q 434 1759 690 2068 
Q 947 2378 1403 2484 
z
M 1172 3481 
Q 1172 3119 1398 2916 
Q 1625 2713 2034 2713 
Q 2441 2713 2670 2916 
Q 2900 3119 2900 3481 
Q 2900 3844 2670 4047 
Q 2441 4250 2034 4250 
Q 1625 4250 1398 4047 
Q 1172 3844 1172 3481 
z
" transform="scale(0.015625)"/>
       </defs>
       <use xlink:href="#DejaVuSans-38"/>
      </g>
     </g>
    </g>
    <g id="ytick_6">
     <g id="line2d_11">
      <g>
       <use xlink:href="#ma50cb4ab22" x="40.88125" y="99.18627" style="stroke: #000000; stroke-width: 0.8"/>
      </g>
     </g>
     <g id="text_11">
      <!-- 10 -->
      <g transform="translate(21.15625 102.985489)scale(0.1 -0.1)">
       <defs>
        <path id="DejaVuSans-31" d="M 794 531 
L 1825 531 
L 1825 4091 
L 703 3866 
L 703 4441 
L 1819 4666 
L 2450 4666 
L 2450 531 
L 3481 531 
L 3481 0 
L 794 0 
L 794 531 
z
" transform="scale(0.015625)"/>
       </defs>
       <use xlink:href="#DejaVuSans-31"/>
       <use xlink:href="#DejaVuSans-30" x="63.623047"/>
      </g>
     </g>
    </g>
    <g id="ytick_7">
     <g id="line2d_12">
      <g>
       <use xlink:href="#ma50cb4ab22" x="40.88125" y="64.361124" style="stroke: #000000; stroke-width: 0.8"/>
      </g>
     </g>
     <g id="text_12">
      <!-- 12 -->
      <g transform="translate(21.15625 68.160343)scale(0.1 -0.1)">
       <use xlink:href="#DejaVuSans-31"/>
       <use xlink:href="#DejaVuSans-32" x="63.623047"/>
      </g>
     </g>
    </g>
    <g id="ytick_8">
     <g id="line2d_13">
      <g>
       <use xlink:href="#ma50cb4ab22" x="40.88125" y="29.535978" style="stroke: #000000; stroke-width: 0.8"/>
      </g>
     </g>
     <g id="text_13">
      <!-- 14 -->
      <g transform="translate(21.15625 33.335197)scale(0.1 -0.1)">
       <use xlink:href="#DejaVuSans-31"/>
       <use xlink:href="#DejaVuSans-34" x="63.623047"/>
      </g>
     </g>
    </g>
    <g id="text_14">
     <!-- AVG_Num_of_Entanglements -->
     <g transform="translate(14.798438 212.592719)rotate(-90)scale(0.1 -0.1)">
      <defs>
       <path id="DejaVuSans-56" d="M 1831 0 
L 50 4666 
L 709 4666 
L 2188 738 
L 3669 4666 
L 4325 4666 
L 2547 0 
L 1831 0 
z
" transform="scale(0.015625)"/>
       <path id="DejaVuSans-47" d="M 3809 666 
L 3809 1919 
L 2778 1919 
L 2778 2438 
L 4434 2438 
L 4434 434 
Q 4069 175 3628 42 
Q 3188 -91 2688 -91 
Q 1594 -91 976 548 
Q 359 1188 359 2328 
Q 359 3472 976 4111 
Q 1594 4750 2688 4750 
Q 3144 4750 3555 4637 
Q 3966 4525 4313 4306 
L 4313 3634 
Q 3963 3931 3569 4081 
Q 3175 4231 2741 4231 
Q 1884 4231 1454 3753 
Q 1025 3275 1025 2328 
Q 1025 1384 1454 906 
Q 1884 428 2741 428 
Q 3075 428 3337 486 
Q 3600 544 3809 666 
z
" transform="scale(0.015625)"/>
       <path id="DejaVuSans-4e" d="M 628 4666 
L 1478 4666 
L 3547 763 
L 3547 4666 
L 4159 4666 
L 4159 0 
L 3309 0 
L 1241 3903 
L 1241 0 
L 628 0 
L 628 4666 
z
" transform="scale(0.015625)"/>
       <path id="DejaVuSans-6f" d="M 1959 3097 
Q 1497 3097 1228 2736 
Q 959 2375 959 1747 
Q 959 1119 1226 758 
Q 1494 397 1959 397 
Q 2419 397 2687 759 
Q 2956 1122 2956 1747 
Q 2956 2369 2687 2733 
Q 2419 3097 1959 3097 
z
M 1959 3584 
Q 2709 3584 3137 3096 
Q 3566 2609 3566 1747 
Q 3566 888 3137 398 
Q 2709 -91 1959 -91 
Q 1206 -91 779 398 
Q 353 888 353 1747 
Q 353 2609 779 3096 
Q 1206 3584 1959 3584 
z
" transform="scale(0.015625)"/>
       <path id="DejaVuSans-66" d="M 2375 4863 
L 2375 4384 
L 1825 4384 
Q 1516 4384 1395 4259 
Q 1275 4134 1275 3809 
L 1275 3500 
L 2222 3500 
L 2222 3053 
L 1275 3053 
L 1275 0 
L 697 0 
L 697 3053 
L 147 3053 
L 147 3500 
L 697 3500 
L 697 3744 
Q 697 4328 969 4595 
Q 1241 4863 1831 4863 
L 2375 4863 
z
" transform="scale(0.015625)"/>
       <path id="DejaVuSans-45" d="M 628 4666 
L 3578 4666 
L 3578 4134 
L 1259 4134 
L 1259 2753 
L 3481 2753 
L 3481 2222 
L 1259 2222 
L 1259 531 
L 3634 531 
L 3634 0 
L 628 0 
L 628 4666 
z
" transform="scale(0.015625)"/>
       <path id="DejaVuSans-61" d="M 2194 1759 
Q 1497 1759 1228 1600 
Q 959 1441 959 1056 
Q 959 750 1161 570 
Q 1363 391 1709 391 
Q 2188 391 2477 730 
Q 2766 1069 2766 1631 
L 2766 1759 
L 2194 1759 
z
M 3341 1997 
L 3341 0 
L 2766 0 
L 2766 531 
Q 2569 213 2275 61 
Q 1981 -91 1556 -91 
Q 1019 -91 701 211 
Q 384 513 384 1019 
Q 384 1609 779 1909 
Q 1175 2209 1959 2209 
L 2766 2209 
L 2766 2266 
Q 2766 2663 2505 2880 
Q 2244 3097 1772 3097 
Q 1472 3097 1187 3025 
Q 903 2953 641 2809 
L 641 3341 
Q 956 3463 1253 3523 
Q 1550 3584 1831 3584 
Q 2591 3584 2966 3190 
Q 3341 2797 3341 1997 
z
" transform="scale(0.015625)"/>
       <path id="DejaVuSans-67" d="M 2906 1791 
Q 2906 2416 2648 2759 
Q 2391 3103 1925 3103 
Q 1463 3103 1205 2759 
Q 947 2416 947 1791 
Q 947 1169 1205 825 
Q 1463 481 1925 481 
Q 2391 481 2648 825 
Q 2906 1169 2906 1791 
z
M 3481 434 
Q 3481 -459 3084 -895 
Q 2688 -1331 1869 -1331 
Q 1566 -1331 1297 -1286 
Q 1028 -1241 775 -1147 
L 775 -588 
Q 1028 -725 1275 -790 
Q 1522 -856 1778 -856 
Q 2344 -856 2625 -561 
Q 2906 -266 2906 331 
L 2906 616 
Q 2728 306 2450 153 
Q 2172 0 1784 0 
Q 1141 0 747 490 
Q 353 981 353 1791 
Q 353 2603 747 3093 
Q 1141 3584 1784 3584 
Q 2172 3584 2450 3431 
Q 2728 3278 2906 2969 
L 2906 3500 
L 3481 3500 
L 3481 434 
z
" transform="scale(0.015625)"/>
       <path id="DejaVuSans-65" d="M 3597 1894 
L 3597 1613 
L 953 1613 
Q 991 1019 1311 708 
Q 1631 397 2203 397 
Q 2534 397 2845 478 
Q 3156 559 3463 722 
L 3463 178 
Q 3153 47 2828 -22 
Q 2503 -91 2169 -91 
Q 1331 -91 842 396 
Q 353 884 353 1716 
Q 353 2575 817 3079 
Q 1281 3584 2069 3584 
Q 2775 3584 3186 3129 
Q 3597 2675 3597 1894 
z
M 3022 2063 
Q 3016 2534 2758 2815 
Q 2500 3097 2075 3097 
Q 1594 3097 1305 2825 
Q 1016 2553 972 2059 
L 3022 2063 
z
" transform="scale(0.015625)"/>
      </defs>
      <use xlink:href="#DejaVuSans-41"/>
      <use xlink:href="#DejaVuSans-56" x="62.033203"/>
      <use xlink:href="#DejaVuSans-47" x="130.441406"/>
      <use xlink:href="#DejaVuSans-5f" x="207.931641"/>
      <use xlink:href="#DejaVuSans-4e" x="257.931641"/>
      <use xlink:href="#DejaVuSans-75" x="332.736328"/>
      <use xlink:href="#DejaVuSans-6d" x="396.115234"/>
      <use xlink:href="#DejaVuSans-5f" x="493.527344"/>
      <use xlink:href="#DejaVuSans-6f" x="543.527344"/>
      <use xlink:href="#DejaVuSans-66" x="604.708984"/>
      <use xlink:href="#DejaVuSans-5f" x="639.914062"/>
      <use xlink:href="#DejaVuSans-45" x="689.914062"/>
      <use xlink:href="#DejaVuSans-6e" x="753.097656"/>
      <use xlink:href="#DejaVuSans-74" x="816.476562"/>
      <use xlink:href="#DejaVuSans-61" x="855.685547"/>
      <use xlink:href="#DejaVuSans-6e" x="916.964844"/>
      <use xlink:href="#DejaVuSans-67" x="980.34375"/>
      <use xlink:href="#DejaVuSans-6c" x="1043.820312"/>
      <use xlink:href="#DejaVuSans-65" x="1071.603516"/>
      <use xlink:href="#DejaVuSans-6d" x="1133.126953"/>
      <use xlink:href="#DejaVuSans-65" x="1230.539062"/>
      <use xlink:href="#DejaVuSans-6e" x="1292.0625"/>
      <use xlink:href="#DejaVuSans-74" x="1355.441406"/>
      <use xlink:href="#DejaVuSans-73" x="1394.650391"/>
     </g>
    </g>
   </g>
   <g id="LineCollection_1">
    <path d="M 69.202178 210.058163 
L 69.202178 181.410813 
" clip-path="url(#p0a05cd23f2)" style="fill: none; stroke: #000000; stroke-width: 1.5"/>
    <path d="M 138.277614 240.663426 
L 138.277614 194.955422 
" clip-path="url(#p0a05cd23f2)" style="fill: none; stroke: #000000; stroke-width: 1.5"/>
    <path d="M 207.353049 199.995903 
L 207.353049 74.311166 
" clip-path="url(#p0a05cd23f2)" style="fill: none; stroke: #000000; stroke-width: 1.5"/>
    <path d="M 276.428484 206.03615 
L 276.428484 123.128558 
" clip-path="url(#p0a05cd23f2)" style="fill: none; stroke: #000000; stroke-width: 1.5"/>
    <path d="M 345.503919 199.564632 
L 345.503919 73.067411 
" clip-path="url(#p0a05cd23f2)" style="fill: none; stroke: #000000; stroke-width: 1.5"/>
   </g>
   <g id="LineCollection_2">
    <path d="M 93.378581 225.146576 
L 93.378581 210.445827 
" clip-path="url(#p0a05cd23f2)" style="fill: none; stroke: #000000; stroke-width: 1.5"/>
    <path d="M 162.454016 225.223371 
L 162.454016 210.548484 
" clip-path="url(#p0a05cd23f2)" style="fill: none; stroke: #000000; stroke-width: 1.5"/>
    <path d="M 231.529451 225.087055 
L 231.529451 210.471968 
" clip-path="url(#p0a05cd23f2)" style="fill: none; stroke: #000000; stroke-width: 1.5"/>
    <path d="M 300.604886 225.108902 
L 300.604886 210.514849 
" clip-path="url(#p0a05cd23f2)" style="fill: none; stroke: #000000; stroke-width: 1.5"/>
    <path d="M 369.680322 225.154214 
L 369.680322 210.481632 
" clip-path="url(#p0a05cd23f2)" style="fill: none; stroke: #000000; stroke-width: 1.5"/>
   </g>
   <g id="line2d_14">
    <path d="M 69.202178 32.147864 
L 69.202178 19.872 
L 93.378581 19.872 
L 93.378581 32.147864 
" clip-path="url(#p0a05cd23f2)" style="fill: none; stroke: #000000; stroke-width: 1.5; stroke-linecap: square"/>
   </g>
   <g id="line2d_15">
    <path d="M 138.277614 32.147864 
L 138.277614 19.872 
L 162.454016 19.872 
L 162.454016 32.147864 
" clip-path="url(#p0a05cd23f2)" style="fill: none; stroke: #000000; stroke-width: 1.5; stroke-linecap: square"/>
   </g>
   <g id="line2d_16">
    <path d="M 207.353049 32.147864 
L 207.353049 19.872 
L 231.529451 19.872 
L 231.529451 32.147864 
" clip-path="url(#p0a05cd23f2)" style="fill: none; stroke: #000000; stroke-width: 1.5; stroke-linecap: square"/>
   </g>
   <g id="line2d_17">
    <path d="M 276.428484 32.147864 
L 276.428484 19.872 
L 300.604886 19.872 
L 300.604886 32.147864 
" clip-path="url(#p0a05cd23f2)" style="fill: none; stroke: #000000; stroke-width: 1.5; stroke-linecap: square"/>
   </g>
   <g id="line2d_18">
    <path d="M 345.503919 32.147864 
L 345.503919 19.872 
L 369.680322 19.872 
L 369.680322 32.147864 
" clip-path="url(#p0a05cd23f2)" style="fill: none; stroke: #000000; stroke-width: 1.5; stroke-linecap: square"/>
   </g>
   <g id="patch_13">
    <path d="M 40.88125 273.312 
L 40.88125 7.2 
" style="fill: none; stroke: #000000; stroke-width: 0.8; stroke-linejoin: miter; stroke-linecap: square"/>
   </g>
   <g id="patch_14">
    <path d="M 398.00125 273.312 
L 398.00125 7.2 
" style="fill: none; stroke: #000000; stroke-width: 0.8; stroke-linejoin: miter; stroke-linecap: square"/>
   </g>
   <g id="patch_15">
    <path d="M 40.88125 273.312 
L 398.00125 273.312 
" style="fill: none; stroke: #000000; stroke-width: 0.8; stroke-linejoin: miter; stroke-linecap: square"/>
   </g>
   <g id="patch_16">
    <path d="M 40.88125 7.2 
L 398.00125 7.2 
" style="fill: none; stroke: #000000; stroke-width: 0.8; stroke-linejoin: miter; stroke-linecap: square"/>
   </g>
   <g id="text_15">
    <!-- * -->
    <g transform="translate(78.79038 19.872)scale(0.1 -0.1)">
     <defs>
      <path id="DejaVuSans-2a" d="M 3009 3897 
L 1888 3291 
L 3009 2681 
L 2828 2375 
L 1778 3009 
L 1778 1831 
L 1422 1831 
L 1422 3009 
L 372 2375 
L 191 2681 
L 1313 3291 
L 191 3897 
L 372 4206 
L 1422 3572 
L 1422 4750 
L 1778 4750 
L 1778 3572 
L 2828 4206 
L 3009 3897 
z
" transform="scale(0.015625)"/>
     </defs>
     <use xlink:href="#DejaVuSans-2a"/>
    </g>
   </g>
   <g id="text_16">
    <!-- ns -->
    <g transform="translate(144.592377 19.872)scale(0.1 -0.1)">
     <use xlink:href="#DejaVuSans-6e"/>
     <use xlink:href="#DejaVuSans-73" x="63.378906"/>
    </g>
   </g>
   <g id="text_17">
    <!-- * -->
    <g transform="translate(216.94125 19.872)scale(0.1 -0.1)">
     <use xlink:href="#DejaVuSans-2a"/>
    </g>
   </g>
   <g id="text_18">
    <!-- * -->
    <g transform="translate(286.016685 19.872)scale(0.1 -0.1)">
     <use xlink:href="#DejaVuSans-2a"/>
    </g>
   </g>
   <g id="text_19">
    <!-- * -->
    <g transform="translate(355.09212 19.872)scale(0.1 -0.1)">
     <use xlink:href="#DejaVuSans-2a"/>
    </g>
   </g>
   <g id="legend_1">
    <g id="patch_17">
     <path d="M 47.88125 156.434125 
L 130.753125 156.434125 
Q 132.753125 156.434125 132.753125 154.434125 
L 132.753125 126.077875 
Q 132.753125 124.077875 130.753125 124.077875 
L 47.88125 124.077875 
Q 45.88125 124.077875 45.88125 126.077875 
L 45.88125 154.434125 
Q 45.88125 156.434125 47.88125 156.434125 
z
" style="fill: #ffffff; opacity: 0.8; stroke: #cccccc; stroke-linejoin: miter"/>
    </g>
    <g id="patch_18">
     <path d="M 49.88125 135.676312 
L 69.88125 135.676312 
L 69.88125 128.676312 
L 49.88125 128.676312 
z
" style="fill: #1f77b4"/>
    </g>
    <g id="text_20">
     <!-- Treatment -->
     <g transform="translate(77.88125 135.676312)scale(0.1 -0.1)">
      <defs>
       <path id="DejaVuSans-54" d="M -19 4666 
L 3928 4666 
L 3928 4134 
L 2272 4134 
L 2272 0 
L 1638 0 
L 1638 4134 
L -19 4134 
L -19 4666 
z
" transform="scale(0.015625)"/>
      </defs>
      <use xlink:href="#DejaVuSans-54"/>
      <use xlink:href="#DejaVuSans-72" x="46.333984"/>
      <use xlink:href="#DejaVuSans-65" x="85.197266"/>
      <use xlink:href="#DejaVuSans-61" x="146.720703"/>
      <use xlink:href="#DejaVuSans-74" x="208"/>
      <use xlink:href="#DejaVuSans-6d" x="247.208984"/>
      <use xlink:href="#DejaVuSans-65" x="344.621094"/>
      <use xlink:href="#DejaVuSans-6e" x="406.144531"/>
      <use xlink:href="#DejaVuSans-74" x="469.523438"/>
     </g>
    </g>
    <g id="patch_19">
     <path d="M 49.88125 150.354437 
L 69.88125 150.354437 
L 69.88125 143.354437 
L 49.88125 143.354437 
z
" style="fill: #ff7f0e"/>
    </g>
    <g id="text_21">
     <!-- Control -->
     <g transform="translate(77.88125 150.354437)scale(0.1 -0.1)">
      <use xlink:href="#DejaVuSans-43"/>
      <use xlink:href="#DejaVuSans-6f" x="69.824219"/>
      <use xlink:href="#DejaVuSans-6e" x="131.005859"/>
      <use xlink:href="#DejaVuSans-74" x="194.384766"/>
      <use xlink:href="#DejaVuSans-72" x="233.59375"/>
      <use xlink:href="#DejaVuSans-6f" x="272.457031"/>
      <use xlink:href="#DejaVuSans-6c" x="333.638672"/>
     </g>
    </g>
   </g>
  </g>
 </g>
 <defs>
  <clipPath id="p0a05cd23f2">
   <rect x="40.88125" y="7.2" width="357.12" height="266.112"/>
  </clipPath>
 </defs>
</svg>
